<svg xmlns="http://www.w3.org/2000/svg" version="1.1" xmlns:xlink="http://www.w3.org/1999/xlink" xmlns:svgjs="http://svgjs.dev/svgjs" width="2000" height="323" viewBox="0 0 2000 323"><g transform="matrix(1,0,0,1,-1.2121212121212466,-0.6784276261572586)"><svg viewBox="0 0 396 64" data-background-color="#ffffff" preserveAspectRatio="xMidYMid meet" height="323" width="2000" xmlns="http://www.w3.org/2000/svg" xmlns:xlink="http://www.w3.org/1999/xlink"><g id="tight-bounds" transform="matrix(1,0,0,1,0.2400000000000091,0.13442528815500054)"><svg viewBox="0 0 395.52 63.731149423690006" height="63.731149423690006" width="395.52"><g><svg viewBox="0 0 522.6415090160598 84.21456337511462" height="63.731149423690006" width="395.52"><g><rect width="7.556772372733573" height="84.21456337511462" x="99.78261001313359" y="0" fill="#ff851b" opacity="1" stroke-width="0" stroke="transparent" fill-opacity="1" class="rect-yte-0" data-fill-palette-color="primary" rx="1%" id="yte-0" data-palette-color="#ff851b"></rect></g><g transform="matrix(1,0,0,1,127.12150901605978,0.20948896361968394)"><svg viewBox="0 0 395.52 83.79558544787525" height="83.79558544787525" width="395.52"><g id="textblocktransform"><svg viewBox="0 0 395.52 83.79558544787525" height="83.79558544787525" width="395.52" id="textblock"><g><svg viewBox="0 0 395.52 83.79558544787525" height="83.79558544787525" width="395.52"><g transform="matrix(1,0,0,1,0,0)"><svg width="395.52" viewBox="0.7 -34 163.53 34.65" height="83.79558544787525" data-palette-color="#ff851b"><path d="M9.8 0.65L9.8 0.65Q7.35 0.65 5.28-0.08 3.2-0.8 1.95-2.1 0.7-3.4 0.7-5.15L0.7-5.15Q0.7-6.3 1.25-7.18 1.8-8.05 2.75-8.05L2.75-8.05Q3.35-8.05 4-7.6L4-7.6Q5.25-6.5 7.23-5.68 9.2-4.85 11.45-4.85L11.45-4.85Q14.4-4.85 16.28-6.03 18.15-7.2 18.15-9.2L18.15-9.2Q18.15-11.1 16.4-11.95 14.65-12.8 11.55-13.55L11.55-13.55Q9.25-14.1 7.13-14.95 5-15.8 3.63-17.32 2.25-18.85 2.25-21.4L2.25-21.4Q2.25-23.35 3.1-25.28 3.95-27.2 5.6-28.8 7.25-30.4 9.6-31.38 11.95-32.35 14.9-32.35L14.9-32.35Q17.1-32.35 18.93-31.85 20.75-31.35 21.83-30.45 22.9-29.55 22.9-28.25L22.9-28.25Q22.9-27.25 22.35-26.5 21.8-25.75 21.05-25.33 20.3-24.9 19.75-24.9L19.75-24.9Q19.25-24.9 18.4-25.35L18.4-25.35Q17-26.1 15.28-26.53 13.55-26.95 12.25-26.95L12.25-26.95Q9.8-26.95 8.28-25.88 6.75-24.8 6.75-23.35L6.75-23.35Q6.75-21.75 8.68-20.68 10.6-19.6 15.6-18.4L15.6-18.4Q19-17.5 20.9-15.93 22.8-14.35 22.8-10.95L22.8-10.95Q22.8-7.9 21.18-5.25 19.55-2.6 16.63-0.98 13.7 0.65 9.8 0.65ZM32.8 0.65L32.8 0.65Q29.8 0.65 27.97-1.23 26.15-3.1 26.15-6.6L26.15-6.6Q26.15-9.1 27.12-11.58 28.1-14.05 29.95-16.05 31.8-18.05 34.4-19.25 37-20.45 40.25-20.45L40.25-20.45Q43.25-20.45 45.37-19.43 47.5-18.4 47.5-16.65L47.5-16.65Q47.5-16.2 47.4-15.48 47.3-14.75 47.15-14.3L47.15-14.3Q47-13.9 46.72-13.58 46.45-13.25 46-13.25L46-13.25Q45.8-13.25 45.25-13.4L45.25-13.4Q45.05-12.35 44.95-11.35 44.85-10.35 44.85-9.35L44.85-9.35Q44.85-7.45 45.42-5.98 46-4.5 47.7-4.15L47.7-4.15Q48.15-4.05 48.42-3.85 48.7-3.65 48.7-3L48.7-3Q48.7-2.45 48.42-1.6 48.15-0.75 47.37-0.08 46.6 0.6 45.15 0.6L45.15 0.6Q43.2 0.6 42.15-0.83 41.1-2.25 41.1-4.9L41.1-4.9Q39.75-2.45 37.67-0.9 35.6 0.65 32.8 0.65ZM34.4-4.55L34.4-4.55Q36.4-4.55 37.92-5.8 39.45-7.05 40.3-8.95L40.3-8.95Q40.85-10.15 41.15-11.58 41.45-13 41.55-14.4L41.55-14.4Q40.7-14.8 39.6-15.05 38.5-15.3 37.3-15.3L37.3-15.3Q34.25-15.3 32.27-13.5 30.3-11.7 30.3-9L30.3-9Q30.3-7 31.4-5.78 32.5-4.55 34.4-4.55ZM56-24.85L56-24.85Q54.6-24.9 53.75-25.7 52.9-26.5 52.9-27.95L52.9-27.95Q52.95-29.5 53.95-30.48 54.95-31.45 56.5-31.4L56.5-31.4Q57.95-31.35 58.77-30.55 59.6-29.75 59.55-28.3L59.55-28.3Q59.5-26.8 58.55-25.83 57.6-24.85 56-24.85ZM56.05 0.5L56.05 0.5Q54.55 0.5 53.7-0.33 52.85-1.15 52.85-3.15L52.85-3.15Q52.85-4.3 53.07-5.4 53.3-6.5 53.6-7.55L53.6-7.55Q53.95-8.65 54.17-9.8 54.4-10.95 54.4-12.25L54.4-12.25Q54.4-13.15 54.15-13.98 53.9-14.8 53.05-15.2L53.05-15.2Q52.4-15.55 51.92-15.93 51.45-16.3 51.45-16.9L51.45-16.9Q51.45-17.6 52.1-18.4 52.75-19.2 53.82-19.78 54.9-20.35 56.05-20.35L56.05-20.35Q57.3-20.35 57.87-19.7 58.45-19.05 58.65-18.05 58.85-17.05 58.85-16L58.85-16Q58.85-14.4 58.6-12.88 58.35-11.35 58.1-10.05L58.1-10.05Q57.9-9.1 57.8-8.3 57.7-7.5 57.7-6.8L57.7-6.8Q57.7-5.55 58.3-4.93 58.9-4.3 60-3.75L60-3.75Q60.45-3.5 60.45-3L60.45-3Q60.45-2.6 60.05-1.75 59.65-0.9 58.67-0.2 57.7 0.5 56.05 0.5ZM67.89 0.5L67.89 0.5Q66.44 0.5 65.74-0.3 65.04-1.1 65.04-3.1L65.04-3.1Q65.04-4.05 65.19-5.55 65.34-7.05 65.54-8.8L65.54-8.8Q65.84-10.95 66.07-13.3 66.29-15.65 66.29-17.8L66.29-17.8Q66.29-20.85 66.02-24.13 65.74-27.4 64.49-29.85L64.49-29.85Q64.04-30.85 64.04-31.3L64.04-31.3Q64.04-31.95 64.62-32.55 65.19-33.15 66.04-33.58 66.89-34 67.69-34L67.69-34Q68.99-34 69.64-32.83 70.29-31.65 70.49-29.63 70.69-27.6 70.69-25L70.69-25Q70.69-21.05 70.37-18.15 70.04-15.25 69.74-13.05L69.74-13.05Q69.54-11.6 69.37-10.3 69.19-9 69.19-7.95L69.19-7.95Q69.19-6.2 69.77-5.43 70.34-4.65 71.64-3.9L71.64-3.9Q71.99-3.7 72.17-3.53 72.34-3.35 72.34-3L72.34-3Q72.34-2.6 71.94-1.75 71.54-0.9 70.57-0.2 69.59 0.5 67.89 0.5ZM78.29 0.55L78.29 0.55Q76.34 0.55 76.34-0.85L76.34-0.85Q76.34-1.25 76.49-1.9L76.49-1.9Q77.54-7.15 77.99-12.55L77.99-12.55Q77.24-12.35 76.79-12.35L76.79-12.35Q76.29-12.35 76.29-13.25L76.29-13.25Q76.29-14.45 76.89-15.95 77.49-17.45 78.29-18.15L78.29-18.15Q78.29-20.8 78.17-22.58 78.04-24.35 77.69-25.7 77.34-27.05 76.59-28.3L76.59-28.3Q76.14-29 76.14-29.35L76.14-29.35Q76.14-30 76.82-30.63 77.49-31.25 78.47-31.7 79.44-32.15 80.29-32.15L80.29-32.15Q81.89-32.15 82.42-30.73 82.94-29.3 82.94-27L82.94-27Q82.89-25.9 82.74-23.85 82.59-21.8 82.29-18.8L82.29-18.8Q85.44-19 88.44-19.1 91.44-19.2 94.19-19.2L94.19-19.2 97.89-19.2 97.89-20.6Q97.89-24.95 96.74-28.25L96.74-28.25Q96.39-29.1 96.39-29.45L96.39-29.45Q96.39-30.45 97.67-31.3 98.94-32.15 100.34-32.15L100.34-32.15Q101.89-32.15 102.42-31.03 102.94-29.9 102.94-27.85L102.94-27.85Q102.94-26.5 102.69-24.2 102.44-21.9 101.99-18.6L101.99-18.6Q101.54-15.1 101.29-12.83 101.04-10.55 101.04-8.8L101.04-8.8Q101.04-5.5 102.74-3.9L102.74-3.9Q103.39-3.15 103.39-2.4L103.39-2.4Q103.39-1.25 102.04-0.38 100.69 0.5 98.79 0.5L98.79 0.5Q97.59 0.5 96.89-0.15 96.19-0.8 96.19-2.95L96.19-2.95Q96.19-3.7 96.34-5.2 96.49-6.7 96.84-9L96.84-9Q97.04-10.45 97.22-11.8 97.39-13.15 97.49-14.35L97.49-14.35Q97.14-13.9 96.82-13.65 96.49-13.4 95.94-13.45L95.94-13.45Q94.14-13.55 92.37-13.63 90.59-13.7 88.84-13.7L88.84-13.7Q85.19-13.7 81.89-13.25L81.89-13.25Q81.84-12.9 81.82-12.08 81.79-11.25 81.79-10.7L81.79-10.7Q81.79-8.55 81.99-6.25 82.19-3.95 82.39-2.15L82.39-2.15Q82.54-0.9 81.19-0.18 79.84 0.55 78.29 0.55ZM115.34 0.65L115.34 0.65Q111.89 0.65 109.81-1.23 107.74-3.1 107.74-6.75L107.74-6.75Q107.74-8.45 108.21-10.05 108.69-11.65 109.49-13.05L109.49-13.05Q108.69-12.55 108.29-12.55L108.29-12.55Q107.69-12.55 107.46-13.23 107.24-13.9 107.24-14.55L107.24-14.55Q107.24-15.7 107.71-16.38 108.19-17.05 108.64-17.4L108.64-17.4Q109.69-18.3 111.94-19.38 114.19-20.45 117.34-20.45L117.34-20.45Q121.64-20.45 124.01-18.05 126.39-15.65 126.39-11.35L126.39-11.35Q126.39-8 124.99-5.28 123.59-2.55 121.11-0.95 118.64 0.65 115.34 0.65ZM116.89-4.45L116.89-4.45Q119.39-4.45 121.11-6.03 122.84-7.6 122.84-10.2L122.84-10.2Q122.84-12.9 121.09-14.05 119.34-15.2 117.04-15.2L117.04-15.2Q115.99-15.2 115.14-15 114.29-14.8 113.54-14.5L113.54-14.5Q112.84-13.5 112.29-12.25 111.74-11 111.74-9.5L111.74-9.5Q111.74-7 113.24-5.73 114.74-4.45 116.89-4.45ZM136.84 0.65L136.84 0.65Q134.99 0.65 133.39 0.1 131.79-0.45 130.79-1.45 129.79-2.45 129.79-3.85L129.79-3.85Q129.79-4.6 130.16-5.28 130.54-5.95 131.39-5.95L131.39-5.95Q131.84-5.95 132.34-5.7L132.34-5.7Q133.24-5.2 134.64-4.78 136.04-4.35 137.59-4.35L137.59-4.35Q139.34-4.35 140.69-4.85 142.04-5.35 142.04-6.25L142.04-6.25Q142.04-6.95 141.01-7.25 139.99-7.55 137.59-7.9L137.59-7.9Q135.94-8.2 134.39-8.6 132.84-9 131.84-9.98 130.84-10.95 130.84-12.85L130.84-12.85Q130.84-14.7 131.86-16.43 132.89-18.15 134.94-19.3 136.99-20.45 139.94-20.45L139.94-20.45Q141.49-20.45 142.94-20.1 144.39-19.75 145.34-19.05 146.29-18.35 146.29-17.3L146.29-17.3Q146.29-16.4 145.66-15.65 145.04-14.9 144.21-14.43 143.39-13.95 142.84-13.95L142.84-13.95Q142.44-13.95 141.89-14.5L141.89-14.5Q141.04-15.2 140.01-15.48 138.99-15.75 137.99-15.75L137.99-15.75Q136.49-15.75 135.56-15.3 134.64-14.85 134.64-14.15L134.64-14.15Q134.64-13.5 135.41-13.1 136.19-12.7 137.34-12.53 138.49-12.35 139.54-12.2L139.54-12.2Q142.44-11.8 144.14-10.83 145.84-9.85 145.84-7.4L145.84-7.4Q145.84-5.5 144.76-3.63 143.69-1.75 141.66-0.55 139.64 0.65 136.84 0.65ZM157.43 0.65L157.43 0.65Q154.38 0.65 153.06-1.38 151.73-3.4 151.73-6.6L151.73-6.6Q151.73-7.75 151.86-8.85 151.98-9.95 152.13-11.05L152.13-11.05Q152.28-12.15 152.43-13.2 152.58-14.25 152.68-15.2L152.68-15.2Q151.63-14.9 150.58-14.9L150.58-14.9Q149.48-14.9 149.48-15.8L149.48-15.8Q149.48-16.75 150.33-18.13 151.18-19.5 152.46-20.85 153.73-22.2 155.01-23.13 156.28-24.05 157.18-24.05L157.18-24.05Q158.28-24.05 158.28-22.15L158.28-22.15Q158.28-21.65 158.21-21.13 158.13-20.6 158.03-20.05L158.03-20.05Q158.98-20.25 159.96-20.4 160.93-20.55 161.83-20.55L161.83-20.55Q162.98-20.55 163.61-20.15 164.23-19.75 164.23-18.6L164.23-18.6Q164.23-17.4 163.66-16.2 163.08-15 162.38-15L162.38-15Q162.23-15 161.88-15.05 161.53-15.1 161.03-15.2L161.03-15.2Q160.38-15.35 159.38-15.5 158.38-15.65 156.98-15.65L156.98-15.65Q156.63-14.1 156.36-12.48 156.08-10.85 156.08-9.55L156.08-9.55Q156.08-6.65 157.53-5.6 158.98-4.55 161.73-4.55L161.73-4.55Q162.58-4.55 162.93-4.28 163.28-4 163.28-3.3L163.28-3.3Q163.28-1.65 161.58-0.5 159.88 0.65 157.43 0.65Z" opacity="1" transform="matrix(1,0,0,1,0,0)" fill="#ff851b" class="wordmark-text-0" data-fill-palette-color="primary" id="text-0"></path></svg></g></svg></g></svg></g></svg></g><g transform="matrix(1,0,0,1,0,0.20948896361968394)"><svg viewBox="0 0 80.00048338294098 83.79558544787525" height="83.79558544787525" width="80.00048338294098"><g><svg version="1.0" xmlns="http://www.w3.org/2000/svg" xmlns:xlink="http://www.w3.org/1999/xlink" x="0" y="0" viewBox="0 0 95.471 100" enable-background="new 0 0 95.471 100" xml:space="preserve" id="icon-0" width="80.00048338294098" height="83.79558544787525" class="icon-icon-0" data-fill-palette-color="accent"><path d="M47.735 0C47.652 2.825 45.997 13.412 27.936 30.934 10.554 47.797 2.439 49.824 0 50 2.439 50.178 10.554 52.204 27.936 69.066 45.997 86.589 47.652 97.177 47.735 100 47.818 97.177 49.474 86.589 67.533 69.066 84.917 52.204 93.031 50.178 95.471 50 93.032 49.824 84.917 47.797 67.533 30.934 49.475 13.412 47.819 2.825 47.735 0" fill="#ff851b" data-fill-palette-color="accent"></path></svg></g></svg></g></svg></g><defs></defs></svg><rect width="395.52" height="63.731149423690006" fill="none" stroke="none" visibility="hidden"></rect></g></svg></g></svg>